<svg width="14" height="25" viewBox="0 0 14 25" fill="none" xmlns="http://www.w3.org/2000/svg">
<path d="M2.34375 0C1.8802 0 1.42706 0.137459 1.04163 0.394993C0.656206 0.652528 0.355801 1.01857 0.178408 1.44684C0.00101551 1.8751 -0.0453986 2.34635 0.0450356 2.80099C0.13547 3.25564 0.35869 3.67325 0.68647 4.00103C1.01425 4.32881 1.43187 4.55203 1.88651 4.64247C2.34115 4.7329 2.8124 4.68649 3.24067 4.50909C3.66893 4.3317 4.03497 4.0313 4.29251 3.64587C4.55004 3.26044 4.6875 2.8073 4.6875 2.34375C4.6875 1.72215 4.44057 1.12601 4.00103 0.686468C3.56149 0.24693 2.96535 0 2.34375 0ZM2.34375 9.8125C1.8802 9.8125 1.42706 9.94996 1.04163 10.2075C0.656206 10.465 0.355801 10.8311 0.178408 11.2593C0.00101551 11.6876 -0.0453986 12.1589 0.0450356 12.6135C0.13547 13.0681 0.35869 13.4858 0.68647 13.8135C1.01425 14.1413 1.43187 14.3645 1.88651 14.455C2.34115 14.5454 2.8124 14.499 3.24067 14.3216C3.66893 14.1442 4.03497 13.8438 4.29251 13.4584C4.55004 13.0729 4.6875 12.6198 4.6875 12.1562C4.6875 11.5346 4.44057 10.9385 4.00103 10.499C3.56149 10.0594 2.96535 9.8125 2.34375 9.8125ZM2.34375 19.625C1.8802 19.625 1.42706 19.7625 1.04163 20.02C0.656206 20.2775 0.355801 20.6436 0.178408 21.0718C0.00101551 21.5001 -0.0453986 21.9713 0.0450356 22.426C0.13547 22.8806 0.35869 23.2983 0.68647 23.626C1.01425 23.9538 1.43187 24.177 1.88651 24.2675C2.34115 24.3579 2.8124 24.3115 3.24067 24.1341C3.66893 23.9567 4.03497 23.6563 4.29251 23.2709C4.55004 22.8854 4.6875 22.4323 4.6875 21.9688C4.6875 21.3471 4.44057 20.751 4.00103 20.3115C3.56149 19.8719 2.96535 19.625 2.34375 19.625Z" fill="#999999"/>
<path d="M10.7987 0C10.3352 0 9.88203 0.137459 9.4966 0.394993C9.11117 0.652528 8.81077 1.01857 8.63337 1.44684C8.45598 1.8751 8.40957 2.34635 8.5 2.80099C8.59043 3.25564 8.81365 3.67325 9.14143 4.00103C9.46921 4.32881 9.88683 4.55203 10.3415 4.64247C10.7961 4.7329 11.2674 4.68649 11.6956 4.50909C12.1239 4.3317 12.4899 4.0313 12.7475 3.64587C13.005 3.26044 13.1425 2.8073 13.1425 2.34375C13.1425 1.72215 12.8955 1.12601 12.456 0.686469C12.0165 0.24693 11.4203 0 10.7987 0ZM10.7987 9.8125C10.3352 9.8125 9.88203 9.94996 9.4966 10.2075C9.11117 10.465 8.81077 10.8311 8.63337 11.2593C8.45598 11.6876 8.40957 12.1589 8.5 12.6135C8.59043 13.0681 8.81365 13.4858 9.14143 13.8135C9.46921 14.1413 9.88683 14.3645 10.3415 14.455C10.7961 14.5454 11.2674 14.499 11.6956 14.3216C12.1239 14.1442 12.4899 13.8438 12.7475 13.4584C13.005 13.0729 13.1425 12.6198 13.1425 12.1562C13.1425 11.5346 12.8955 10.9385 12.456 10.499C12.0165 10.0594 11.4203 9.8125 10.7987 9.8125ZM10.7987 19.625C10.3352 19.625 9.88203 19.7625 9.4966 20.02C9.11117 20.2775 8.81077 20.6436 8.63337 21.0718C8.45598 21.5001 8.40957 21.9713 8.5 22.426C8.59043 22.8806 8.81365 23.2983 9.14143 23.626C9.46921 23.9538 9.88683 24.177 10.3415 24.2675C10.7961 24.3579 11.2674 24.3115 11.6956 24.1341C12.1239 23.9567 12.4899 23.6563 12.7475 23.2709C13.005 22.8854 13.1425 22.4323 13.1425 21.9688C13.1425 21.3471 12.8955 20.751 12.456 20.3115C12.0165 19.8719 11.4203 19.625 10.7987 19.625Z" fill="#999999"/>
</svg>
