<svg width="23" height="26" viewBox="0 0 23 26" fill="none" xmlns="http://www.w3.org/2000/svg">
<path d="M2.03809 22.7188C2.03809 23.3404 2.28502 23.9365 2.72455 24.3761C3.16409 24.8156 3.76023 25.0626 4.38184 25.0626H18.4443C19.0659 25.0626 19.6621 24.8156 20.1016 24.3761C20.5412 23.9365 20.7881 23.3404 20.7881 22.7188V6.31255H2.03809V22.7188ZM15.3193 10.2188C15.3193 10.0116 15.4016 9.81289 15.5482 9.66638C15.6947 9.51986 15.8934 9.43755 16.1006 9.43755C16.3078 9.43755 16.5065 9.51986 16.653 9.66638C16.7995 9.81289 16.8818 10.0116 16.8818 10.2188V21.1563C16.8818 21.3635 16.7995 21.5622 16.653 21.7087C16.5065 21.8552 16.3078 21.9376 16.1006 21.9376C15.8934 21.9376 15.6947 21.8552 15.5482 21.7087C15.4016 21.5622 15.3193 21.3635 15.3193 21.1563V10.2188ZM10.6318 10.2188C10.6318 10.0116 10.7141 9.81289 10.8607 9.66638C11.0072 9.51986 11.2059 9.43755 11.4131 9.43755C11.6203 9.43755 11.819 9.51986 11.9655 9.66638C12.112 9.81289 12.1943 10.0116 12.1943 10.2188V21.1563C12.1943 21.3635 12.112 21.5622 11.9655 21.7087C11.819 21.8552 11.6203 21.9376 11.4131 21.9376C11.2059 21.9376 11.0072 21.8552 10.8607 21.7087C10.7141 21.5622 10.6318 21.3635 10.6318 21.1563V10.2188ZM5.94434 10.2188C5.94434 10.0116 6.02665 9.81289 6.17316 9.66638C6.31967 9.51986 6.51839 9.43755 6.72559 9.43755C6.93279 9.43755 7.1315 9.51986 7.27801 9.66638C7.42453 9.81289 7.50684 10.0116 7.50684 10.2188V21.1563C7.50684 21.3635 7.42453 21.5622 7.27801 21.7087C7.1315 21.8552 6.93279 21.9376 6.72559 21.9376C6.51839 21.9376 6.31967 21.8552 6.17316 21.7087C6.02665 21.5622 5.94434 21.3635 5.94434 21.1563V10.2188ZM21.5693 1.62505H15.71L15.251 0.711968C15.1537 0.51676 15.004 0.352556 14.8185 0.237827C14.6331 0.123098 14.4193 0.0623979 14.2012 0.0625543H8.62012C8.40253 0.0617179 8.18911 0.122192 8.0043 0.237048C7.81949 0.351905 7.67078 0.516497 7.57519 0.711968L7.11621 1.62505H1.25684C1.04964 1.62505 0.850922 1.70736 0.704409 1.85388C0.557896 2.00039 0.475586 2.1991 0.475586 2.4063L0.475586 3.9688C0.475586 4.176 0.557896 4.37472 0.704409 4.52123C0.850922 4.66774 1.04964 4.75005 1.25684 4.75005H21.5693C21.7765 4.75005 21.9753 4.66774 22.1218 4.52123C22.2683 4.37472 22.3506 4.176 22.3506 3.9688V2.4063C22.3506 2.1991 22.2683 2.00039 22.1218 1.85388C21.9753 1.70736 21.7765 1.62505 21.5693 1.62505Z" fill="#FF3860"/>
</svg>
