<svg width="50" height="50" viewBox="0 0 50 50" fill="none" xmlns="http://www.w3.org/2000/svg">
<path d="M30.2812 13H19.3438C18.0498 13 17 14.0498 17 15.3438V35.6562C17 36.9502 18.0498 38 19.3438 38H30.2812C31.5752 38 32.625 36.9502 32.625 35.6562V15.3438C32.625 14.0498 31.5752 13 30.2812 13ZM24.8125 36.4375C23.9482 36.4375 23.25 35.7393 23.25 34.875C23.25 34.0107 23.9482 33.3125 24.8125 33.3125C25.6768 33.3125 26.375 34.0107 26.375 34.875C26.375 35.7393 25.6768 36.4375 24.8125 36.4375ZM30.2812 31.1641C30.2812 31.4863 30.0176 31.75 29.6953 31.75H19.9297C19.6074 31.75 19.3438 31.4863 19.3438 31.1641V15.9297C19.3438 15.6074 19.6074 15.3438 19.9297 15.3438H29.6953C30.0176 15.3438 30.2812 15.6074 30.2812 15.9297V31.1641Z" fill="black"/>
<rect x="0.5" y="0.5" width="49" height="49" rx="4.5" stroke="#CCCCCC"/>
</svg>
