<svg width="50" height="50" viewBox="0 0 50 50" fill="none" xmlns="http://www.w3.org/2000/svg">
<path d="M35.9167 14H15.0833C13.9332 14 13 14.9332 13 16.0833V29.9722C13 31.1224 13.9332 32.0556 15.0833 32.0556H23.4167L22.7222 34.1389H19.5972C19.02 34.1389 18.5556 34.6033 18.5556 35.1806C18.5556 35.7578 19.02 36.2222 19.5972 36.2222H31.4028C31.98 36.2222 32.4444 35.7578 32.4444 35.1806C32.4444 34.6033 31.98 34.1389 31.4028 34.1389H28.2778L27.5833 32.0556H35.9167C37.0668 32.0556 38 31.1224 38 29.9722V16.0833C38 14.9332 37.0668 14 35.9167 14ZM35.2222 29.2778H15.7778V16.7778H35.2222V29.2778Z" fill="black"/>
<rect x="0.5" y="0.5" width="49" height="49" rx="4.5" stroke="#CCCCCC"/>
</svg>
